<?xml version="1.0" encoding="utf-8"?>
<!-- Generator: Adobe Illustrator 25.4.1, SVG Export Plug-In . SVG Version: 6.00 Build 0)  -->
<svg version="1.1" id="Layer_1" xmlns="http://www.w3.org/2000/svg" xmlns:xlink="http://www.w3.org/1999/xlink" x="0px" y="0px"
	 width="28px" height="28px" viewBox="0 0 28 28" style="enable-background:new 0 0 28 28;" xml:space="preserve">
<style type="text/css">
	.st0{fill:#24C0D3;}
</style>
<path class="st0" d="M2.4,15.5h19.5l-7.2,7.2c-0.6,0.6-0.6,1.5,0,2.1c0.6,0.6,1.5,0.6,2.1,0l9.8-9.8c0.1-0.1,0.3-0.3,0.3-0.5
	c0,0,0,0,0,0c0.1-0.2,0.1-0.4,0.1-0.5v0v0c0-0.2,0-0.4-0.1-0.5c0,0,0,0,0,0c-0.1-0.2-0.2-0.4-0.3-0.5l-9.8-9.8
	c-0.3-0.3-0.7-0.4-1.1-0.4S15,2.8,14.7,3.1c-0.6,0.6-0.6,1.5,0,2.1l7.2,7.2H2.4c-0.8,0-1.5,0.7-1.5,1.5S1.6,15.5,2.4,15.5z"/>
</svg>
